<mxfile host="app.diagrams.net" agent="Mozilla/5.0 (Macintosh; Intel Mac OS X 10_15_7) AppleWebKit/605.1.15 (KHTML, like Gecko) Version/18.3 Safari/605.1.15" version="26.0.11">
  <diagram name="Page-1" id="7fRCmvekf1WJRbGHWaEq">
    <mxGraphModel dx="3227" dy="1118" grid="1" gridSize="10" guides="1" tooltips="1" connect="1" arrows="1" fold="1" page="1" pageScale="1" pageWidth="850" pageHeight="1100" math="0" shadow="0">
      <root>
        <mxCell id="0" />
        <mxCell id="1" parent="0" />
        <mxCell id="qL8Xj3PJYmWpMpbPDrzU-1" value="Покупка билета" style="rounded=0;whiteSpace=wrap;html=1;" parent="1" vertex="1">
          <mxGeometry x="80" y="80" width="120" height="60" as="geometry" />
        </mxCell>
        <mxCell id="qL8Xj3PJYmWpMpbPDrzU-6" value="" style="edgeStyle=orthogonalEdgeStyle;rounded=0;orthogonalLoop=1;jettySize=auto;html=1;" parent="1" source="qL8Xj3PJYmWpMpbPDrzU-3" target="qL8Xj3PJYmWpMpbPDrzU-5" edge="1">
          <mxGeometry relative="1" as="geometry" />
        </mxCell>
        <mxCell id="qL8Xj3PJYmWpMpbPDrzU-3" value="Выбор точки отправления" style="rounded=0;whiteSpace=wrap;html=1;" parent="1" vertex="1">
          <mxGeometry x="80" y="180" width="120" height="60" as="geometry" />
        </mxCell>
        <mxCell id="qL8Xj3PJYmWpMpbPDrzU-4" value="" style="endArrow=classic;html=1;rounded=0;exitX=0.5;exitY=1;exitDx=0;exitDy=0;entryX=0.5;entryY=0;entryDx=0;entryDy=0;" parent="1" source="qL8Xj3PJYmWpMpbPDrzU-1" target="qL8Xj3PJYmWpMpbPDrzU-3" edge="1">
          <mxGeometry width="50" height="50" relative="1" as="geometry">
            <mxPoint x="400" y="270" as="sourcePoint" />
            <mxPoint x="450" y="220" as="targetPoint" />
          </mxGeometry>
        </mxCell>
        <mxCell id="qL8Xj3PJYmWpMpbPDrzU-15" value="" style="edgeStyle=orthogonalEdgeStyle;rounded=0;orthogonalLoop=1;jettySize=auto;html=1;" parent="1" source="qL8Xj3PJYmWpMpbPDrzU-5" target="qL8Xj3PJYmWpMpbPDrzU-14" edge="1">
          <mxGeometry relative="1" as="geometry" />
        </mxCell>
        <mxCell id="qL8Xj3PJYmWpMpbPDrzU-5" value="Выбор точки назанчения" style="rounded=0;whiteSpace=wrap;html=1;" parent="1" vertex="1">
          <mxGeometry x="80" y="280" width="120" height="60" as="geometry" />
        </mxCell>
        <mxCell id="qL8Xj3PJYmWpMpbPDrzU-19" style="edgeStyle=orthogonalEdgeStyle;rounded=0;orthogonalLoop=1;jettySize=auto;html=1;exitX=1;exitY=0.5;exitDx=0;exitDy=0;entryX=0.5;entryY=0;entryDx=0;entryDy=0;" parent="1" source="qL8Xj3PJYmWpMpbPDrzU-14" target="qL8Xj3PJYmWpMpbPDrzU-17" edge="1">
          <mxGeometry relative="1" as="geometry" />
        </mxCell>
        <mxCell id="qL8Xj3PJYmWpMpbPDrzU-20" value="Да" style="edgeLabel;html=1;align=center;verticalAlign=middle;resizable=0;points=[];" parent="qL8Xj3PJYmWpMpbPDrzU-19" vertex="1" connectable="0">
          <mxGeometry x="0.3714" y="-3" relative="1" as="geometry">
            <mxPoint as="offset" />
          </mxGeometry>
        </mxCell>
        <mxCell id="qL8Xj3PJYmWpMpbPDrzU-22" style="edgeStyle=orthogonalEdgeStyle;rounded=0;orthogonalLoop=1;jettySize=auto;html=1;entryX=0;entryY=0.5;entryDx=0;entryDy=0;" parent="1" source="qL8Xj3PJYmWpMpbPDrzU-14" target="qL8Xj3PJYmWpMpbPDrzU-21" edge="1">
          <mxGeometry relative="1" as="geometry" />
        </mxCell>
        <mxCell id="qL8Xj3PJYmWpMpbPDrzU-23" value="Нет" style="edgeLabel;html=1;align=center;verticalAlign=middle;resizable=0;points=[];" parent="qL8Xj3PJYmWpMpbPDrzU-22" vertex="1" connectable="0">
          <mxGeometry x="0.3778" relative="1" as="geometry">
            <mxPoint as="offset" />
          </mxGeometry>
        </mxCell>
        <mxCell id="qL8Xj3PJYmWpMpbPDrzU-14" value="Нужен ли обратный билет?" style="rhombus;whiteSpace=wrap;html=1;rounded=0;" parent="1" vertex="1">
          <mxGeometry x="80" y="380" width="120" height="80" as="geometry" />
        </mxCell>
        <mxCell id="qL8Xj3PJYmWpMpbPDrzU-24" style="edgeStyle=orthogonalEdgeStyle;rounded=0;orthogonalLoop=1;jettySize=auto;html=1;entryX=1;entryY=0.5;entryDx=0;entryDy=0;" parent="1" source="qL8Xj3PJYmWpMpbPDrzU-17" target="qL8Xj3PJYmWpMpbPDrzU-21" edge="1">
          <mxGeometry relative="1" as="geometry" />
        </mxCell>
        <mxCell id="qL8Xj3PJYmWpMpbPDrzU-17" value="Добавление даты обратного рейса" style="rounded=0;whiteSpace=wrap;html=1;" parent="1" vertex="1">
          <mxGeometry x="200" y="500" width="120" height="60" as="geometry" />
        </mxCell>
        <mxCell id="qL8Xj3PJYmWpMpbPDrzU-21" value="Поиск билета" style="rounded=0;whiteSpace=wrap;html=1;" parent="1" vertex="1">
          <mxGeometry x="80" y="600" width="120" height="60" as="geometry" />
        </mxCell>
        <mxCell id="qL8Xj3PJYmWpMpbPDrzU-28" value="" style="edgeStyle=orthogonalEdgeStyle;rounded=0;orthogonalLoop=1;jettySize=auto;html=1;" parent="1" source="qL8Xj3PJYmWpMpbPDrzU-25" edge="1">
          <mxGeometry relative="1" as="geometry">
            <mxPoint x="130.0000000000001" y="920" as="targetPoint" />
          </mxGeometry>
        </mxCell>
        <mxCell id="qL8Xj3PJYmWpMpbPDrzU-25" value="Выдача результата" style="rounded=0;whiteSpace=wrap;html=1;" parent="1" vertex="1">
          <mxGeometry x="70" y="820" width="120" height="60" as="geometry" />
        </mxCell>
        <mxCell id="qL8Xj3PJYmWpMpbPDrzU-33" style="edgeStyle=orthogonalEdgeStyle;rounded=0;orthogonalLoop=1;jettySize=auto;html=1;entryX=0.5;entryY=0;entryDx=0;entryDy=0;" parent="1" source="qL8Xj3PJYmWpMpbPDrzU-29" target="qL8Xj3PJYmWpMpbPDrzU-32" edge="1">
          <mxGeometry relative="1" as="geometry" />
        </mxCell>
        <mxCell id="qL8Xj3PJYmWpMpbPDrzU-34" value="Да" style="edgeLabel;html=1;align=center;verticalAlign=middle;resizable=0;points=[];" parent="qL8Xj3PJYmWpMpbPDrzU-33" vertex="1" connectable="0">
          <mxGeometry x="0.0018" y="-1" relative="1" as="geometry">
            <mxPoint as="offset" />
          </mxGeometry>
        </mxCell>
        <mxCell id="qL8Xj3PJYmWpMpbPDrzU-29" value="Оплата успешная?" style="rhombus;whiteSpace=wrap;html=1;" parent="1" vertex="1">
          <mxGeometry x="70" y="1020" width="120" height="80" as="geometry" />
        </mxCell>
        <mxCell id="qL8Xj3PJYmWpMpbPDrzU-30" value="Выбор билета" style="rounded=0;whiteSpace=wrap;html=1;" parent="1" vertex="1">
          <mxGeometry x="70" y="920" width="120" height="60" as="geometry" />
        </mxCell>
        <mxCell id="qL8Xj3PJYmWpMpbPDrzU-31" value="" style="endArrow=classic;html=1;rounded=0;exitX=0.5;exitY=1;exitDx=0;exitDy=0;entryX=0.5;entryY=0;entryDx=0;entryDy=0;" parent="1" source="qL8Xj3PJYmWpMpbPDrzU-30" target="qL8Xj3PJYmWpMpbPDrzU-29" edge="1">
          <mxGeometry width="50" height="50" relative="1" as="geometry">
            <mxPoint x="120" y="930" as="sourcePoint" />
            <mxPoint x="170" y="880" as="targetPoint" />
          </mxGeometry>
        </mxCell>
        <mxCell id="qL8Xj3PJYmWpMpbPDrzU-32" value="Выдача билета" style="rounded=0;whiteSpace=wrap;html=1;" parent="1" vertex="1">
          <mxGeometry x="-200" y="1020" width="120" height="60" as="geometry" />
        </mxCell>
        <mxCell id="qL8Xj3PJYmWpMpbPDrzU-39" style="edgeStyle=orthogonalEdgeStyle;rounded=0;orthogonalLoop=1;jettySize=auto;html=1;entryX=0.583;entryY=0;entryDx=0;entryDy=0;entryPerimeter=0;" parent="1" source="qL8Xj3PJYmWpMpbPDrzU-29" edge="1">
          <mxGeometry relative="1" as="geometry">
            <mxPoint x="259.96000000000004" y="1140" as="targetPoint" />
          </mxGeometry>
        </mxCell>
        <mxCell id="qL8Xj3PJYmWpMpbPDrzU-40" value="Нет" style="edgeLabel;html=1;align=center;verticalAlign=middle;resizable=0;points=[];" parent="qL8Xj3PJYmWpMpbPDrzU-39" vertex="1" connectable="0">
          <mxGeometry x="-0.1157" y="1" relative="1" as="geometry">
            <mxPoint as="offset" />
          </mxGeometry>
        </mxCell>
        <mxCell id="qL8Xj3PJYmWpMpbPDrzU-49" style="edgeStyle=orthogonalEdgeStyle;rounded=0;orthogonalLoop=1;jettySize=auto;html=1;exitX=0;exitY=0.5;exitDx=0;exitDy=0;" parent="1" source="qL8Xj3PJYmWpMpbPDrzU-42" target="qL8Xj3PJYmWpMpbPDrzU-48" edge="1">
          <mxGeometry relative="1" as="geometry">
            <Array as="points">
              <mxPoint x="200" y="1210" />
              <mxPoint x="60" y="1210" />
            </Array>
          </mxGeometry>
        </mxCell>
        <mxCell id="qL8Xj3PJYmWpMpbPDrzU-50" style="edgeStyle=orthogonalEdgeStyle;rounded=0;orthogonalLoop=1;jettySize=auto;html=1;exitX=0.5;exitY=1;exitDx=0;exitDy=0;entryX=0.5;entryY=0;entryDx=0;entryDy=0;" parent="1" source="qL8Xj3PJYmWpMpbPDrzU-42" target="qL8Xj3PJYmWpMpbPDrzU-46" edge="1">
          <mxGeometry relative="1" as="geometry" />
        </mxCell>
        <mxCell id="qL8Xj3PJYmWpMpbPDrzU-51" style="edgeStyle=orthogonalEdgeStyle;rounded=0;orthogonalLoop=1;jettySize=auto;html=1;exitX=1;exitY=0.5;exitDx=0;exitDy=0;entryX=0.5;entryY=0;entryDx=0;entryDy=0;" parent="1" source="qL8Xj3PJYmWpMpbPDrzU-42" target="qL8Xj3PJYmWpMpbPDrzU-47" edge="1">
          <mxGeometry relative="1" as="geometry" />
        </mxCell>
        <mxCell id="qL8Xj3PJYmWpMpbPDrzU-53" style="edgeStyle=orthogonalEdgeStyle;rounded=0;orthogonalLoop=1;jettySize=auto;html=1;" parent="1" source="qL8Xj3PJYmWpMpbPDrzU-42" target="qL8Xj3PJYmWpMpbPDrzU-52" edge="1">
          <mxGeometry relative="1" as="geometry" />
        </mxCell>
        <mxCell id="qL8Xj3PJYmWpMpbPDrzU-42" value="Тип ошибки" style="rhombus;whiteSpace=wrap;html=1;" parent="1" vertex="1">
          <mxGeometry x="200" y="1140" width="120" height="80" as="geometry" />
        </mxCell>
        <mxCell id="qL8Xj3PJYmWpMpbPDrzU-46" value="Ошибки оплаты" style="rhombus;whiteSpace=wrap;html=1;" parent="1" vertex="1">
          <mxGeometry x="200" y="1320" width="120" height="80" as="geometry" />
        </mxCell>
        <mxCell id="qL8Xj3PJYmWpMpbPDrzU-76" style="edgeStyle=orthogonalEdgeStyle;rounded=0;orthogonalLoop=1;jettySize=auto;html=1;entryX=1;entryY=0.5;entryDx=0;entryDy=0;" parent="1" source="qL8Xj3PJYmWpMpbPDrzU-47" target="qL8Xj3PJYmWpMpbPDrzU-69" edge="1">
          <mxGeometry relative="1" as="geometry" />
        </mxCell>
        <mxCell id="qL8Xj3PJYmWpMpbPDrzU-79" style="edgeStyle=orthogonalEdgeStyle;rounded=0;orthogonalLoop=1;jettySize=auto;html=1;entryX=1;entryY=0.5;entryDx=0;entryDy=0;" parent="1" source="qL8Xj3PJYmWpMpbPDrzU-47" target="qL8Xj3PJYmWpMpbPDrzU-77" edge="1">
          <mxGeometry relative="1" as="geometry" />
        </mxCell>
        <mxCell id="qL8Xj3PJYmWpMpbPDrzU-47" value="Ошибки в рейсах" style="rhombus;whiteSpace=wrap;html=1;" parent="1" vertex="1">
          <mxGeometry x="400" y="1320" width="120" height="80" as="geometry" />
        </mxCell>
        <mxCell id="qL8Xj3PJYmWpMpbPDrzU-57" style="edgeStyle=orthogonalEdgeStyle;rounded=0;orthogonalLoop=1;jettySize=auto;html=1;entryX=1;entryY=0.5;entryDx=0;entryDy=0;" parent="1" source="qL8Xj3PJYmWpMpbPDrzU-48" target="qL8Xj3PJYmWpMpbPDrzU-54" edge="1">
          <mxGeometry relative="1" as="geometry" />
        </mxCell>
        <mxCell id="qL8Xj3PJYmWpMpbPDrzU-58" style="edgeStyle=orthogonalEdgeStyle;rounded=0;orthogonalLoop=1;jettySize=auto;html=1;entryX=1;entryY=0.5;entryDx=0;entryDy=0;" parent="1" source="qL8Xj3PJYmWpMpbPDrzU-48" target="qL8Xj3PJYmWpMpbPDrzU-55" edge="1">
          <mxGeometry relative="1" as="geometry" />
        </mxCell>
        <mxCell id="qL8Xj3PJYmWpMpbPDrzU-59" style="edgeStyle=orthogonalEdgeStyle;rounded=0;orthogonalLoop=1;jettySize=auto;html=1;entryX=1;entryY=0.5;entryDx=0;entryDy=0;" parent="1" source="qL8Xj3PJYmWpMpbPDrzU-48" target="qL8Xj3PJYmWpMpbPDrzU-56" edge="1">
          <mxGeometry relative="1" as="geometry">
            <mxPoint x="-50" y="1370" as="targetPoint" />
          </mxGeometry>
        </mxCell>
        <mxCell id="qL8Xj3PJYmWpMpbPDrzU-48" value="Дилер не активен" style="rhombus;whiteSpace=wrap;html=1;" parent="1" vertex="1">
          <mxGeometry y="1320" width="120" height="80" as="geometry" />
        </mxCell>
        <mxCell id="qL8Xj3PJYmWpMpbPDrzU-52" value="Ошибки пассажиров" style="rhombus;whiteSpace=wrap;html=1;" parent="1" vertex="1">
          <mxGeometry x="680" y="1320" width="120" height="80" as="geometry" />
        </mxCell>
        <mxCell id="qL8Xj3PJYmWpMpbPDrzU-54" value="Дилер не активен" style="rounded=0;whiteSpace=wrap;html=1;" parent="1" vertex="1">
          <mxGeometry x="-260" y="1330" width="120" height="60" as="geometry" />
        </mxCell>
        <mxCell id="qL8Xj3PJYmWpMpbPDrzU-55" value="Дилер не найден" style="rounded=0;whiteSpace=wrap;html=1;" parent="1" vertex="1">
          <mxGeometry x="-260" y="1230" width="120" height="60" as="geometry" />
        </mxCell>
        <mxCell id="qL8Xj3PJYmWpMpbPDrzU-56" value="Неверные login и/или password" style="rounded=0;whiteSpace=wrap;html=1;" parent="1" vertex="1">
          <mxGeometry x="-260" y="1430" width="120" height="60" as="geometry" />
        </mxCell>
        <mxCell id="qL8Xj3PJYmWpMpbPDrzU-60" value="Продажа недоступна" style="rounded=0;whiteSpace=wrap;html=1;" parent="1" vertex="1">
          <mxGeometry x="70" y="1440" width="120" height="60" as="geometry" />
        </mxCell>
        <mxCell id="qL8Xj3PJYmWpMpbPDrzU-61" value="Депозита недостаточно" style="rounded=0;whiteSpace=wrap;html=1;" parent="1" vertex="1">
          <mxGeometry x="70" y="1540" width="120" height="60" as="geometry" />
        </mxCell>
        <mxCell id="qL8Xj3PJYmWpMpbPDrzU-62" value="Заказ не сгенерирован" style="rounded=0;whiteSpace=wrap;html=1;" parent="1" vertex="1">
          <mxGeometry x="70" y="1640" width="120" height="60" as="geometry" />
        </mxCell>
        <mxCell id="qL8Xj3PJYmWpMpbPDrzU-65" value="" style="endArrow=none;html=1;rounded=0;entryX=0.5;entryY=1;entryDx=0;entryDy=0;" parent="1" target="qL8Xj3PJYmWpMpbPDrzU-46" edge="1">
          <mxGeometry width="50" height="50" relative="1" as="geometry">
            <mxPoint x="260" y="1670" as="sourcePoint" />
            <mxPoint x="300" y="1530" as="targetPoint" />
          </mxGeometry>
        </mxCell>
        <mxCell id="qL8Xj3PJYmWpMpbPDrzU-66" value="" style="endArrow=classic;html=1;rounded=0;entryX=1;entryY=0.5;entryDx=0;entryDy=0;" parent="1" target="qL8Xj3PJYmWpMpbPDrzU-62" edge="1">
          <mxGeometry width="50" height="50" relative="1" as="geometry">
            <mxPoint x="260" y="1670" as="sourcePoint" />
            <mxPoint x="290" y="1570" as="targetPoint" />
          </mxGeometry>
        </mxCell>
        <mxCell id="qL8Xj3PJYmWpMpbPDrzU-67" value="" style="endArrow=classic;html=1;rounded=0;entryX=1;entryY=0.5;entryDx=0;entryDy=0;" parent="1" edge="1">
          <mxGeometry width="50" height="50" relative="1" as="geometry">
            <mxPoint x="260" y="1570" as="sourcePoint" />
            <mxPoint x="190" y="1570" as="targetPoint" />
          </mxGeometry>
        </mxCell>
        <mxCell id="qL8Xj3PJYmWpMpbPDrzU-68" value="" style="endArrow=classic;html=1;rounded=0;entryX=1;entryY=0.5;entryDx=0;entryDy=0;" parent="1" edge="1">
          <mxGeometry width="50" height="50" relative="1" as="geometry">
            <mxPoint x="260" y="1469.57" as="sourcePoint" />
            <mxPoint x="190" y="1469.57" as="targetPoint" />
          </mxGeometry>
        </mxCell>
        <mxCell id="qL8Xj3PJYmWpMpbPDrzU-69" value="Маршрут не активен" style="rounded=0;whiteSpace=wrap;html=1;" parent="1" vertex="1">
          <mxGeometry x="295" y="1440" width="120" height="60" as="geometry" />
        </mxCell>
        <mxCell id="qL8Xj3PJYmWpMpbPDrzU-70" value="Место занято" style="rounded=0;whiteSpace=wrap;html=1;" parent="1" vertex="1">
          <mxGeometry x="550" y="1440" width="120" height="60" as="geometry" />
        </mxCell>
        <mxCell id="qL8Xj3PJYmWpMpbPDrzU-71" value="Место неактивно" style="rounded=0;whiteSpace=wrap;html=1;" parent="1" vertex="1">
          <mxGeometry x="550" y="1540" width="120" height="60" as="geometry" />
        </mxCell>
        <mxCell id="qL8Xj3PJYmWpMpbPDrzU-72" value="Произошла ошибка продажи билета" style="rounded=0;whiteSpace=wrap;html=1;" parent="1" vertex="1">
          <mxGeometry x="550" y="1640" width="120" height="60" as="geometry" />
        </mxCell>
        <mxCell id="qL8Xj3PJYmWpMpbPDrzU-73" value="Произошла ошибка статуса транзакции" style="rounded=0;whiteSpace=wrap;html=1;" parent="1" vertex="1">
          <mxGeometry x="550" y="1740" width="120" height="60" as="geometry" />
        </mxCell>
        <mxCell id="qL8Xj3PJYmWpMpbPDrzU-74" value="Интервал не активен" style="rounded=0;whiteSpace=wrap;html=1;" parent="1" vertex="1">
          <mxGeometry x="550" y="1840" width="120" height="60" as="geometry" />
        </mxCell>
        <mxCell id="qL8Xj3PJYmWpMpbPDrzU-77" value="Нет доступа к продаже" style="rounded=0;whiteSpace=wrap;html=1;" parent="1" vertex="1">
          <mxGeometry x="295" y="1540" width="120" height="60" as="geometry" />
        </mxCell>
        <mxCell id="qL8Xj3PJYmWpMpbPDrzU-82" value="" style="endArrow=none;html=1;rounded=0;exitX=0.5;exitY=1;exitDx=0;exitDy=0;" parent="1" source="qL8Xj3PJYmWpMpbPDrzU-52" edge="1">
          <mxGeometry width="50" height="50" relative="1" as="geometry">
            <mxPoint x="600" y="1790" as="sourcePoint" />
            <mxPoint x="740" y="1870" as="targetPoint" />
          </mxGeometry>
        </mxCell>
        <mxCell id="qL8Xj3PJYmWpMpbPDrzU-83" value="" style="endArrow=classic;html=1;rounded=0;entryX=1;entryY=0.5;entryDx=0;entryDy=0;" parent="1" target="qL8Xj3PJYmWpMpbPDrzU-74" edge="1">
          <mxGeometry width="50" height="50" relative="1" as="geometry">
            <mxPoint x="740" y="1870" as="sourcePoint" />
            <mxPoint x="770" y="1840" as="targetPoint" />
          </mxGeometry>
        </mxCell>
        <mxCell id="qL8Xj3PJYmWpMpbPDrzU-84" value="" style="endArrow=classic;html=1;rounded=0;entryX=1;entryY=0.5;entryDx=0;entryDy=0;" parent="1" edge="1">
          <mxGeometry width="50" height="50" relative="1" as="geometry">
            <mxPoint x="740" y="1770" as="sourcePoint" />
            <mxPoint x="670" y="1770" as="targetPoint" />
          </mxGeometry>
        </mxCell>
        <mxCell id="qL8Xj3PJYmWpMpbPDrzU-85" value="" style="endArrow=classic;html=1;rounded=0;entryX=1;entryY=0.5;entryDx=0;entryDy=0;" parent="1" edge="1">
          <mxGeometry width="50" height="50" relative="1" as="geometry">
            <mxPoint x="740" y="1669.7" as="sourcePoint" />
            <mxPoint x="670" y="1669.7" as="targetPoint" />
          </mxGeometry>
        </mxCell>
        <mxCell id="qL8Xj3PJYmWpMpbPDrzU-86" value="" style="endArrow=classic;html=1;rounded=0;entryX=1;entryY=0.5;entryDx=0;entryDy=0;" parent="1" edge="1">
          <mxGeometry width="50" height="50" relative="1" as="geometry">
            <mxPoint x="740" y="1569.7" as="sourcePoint" />
            <mxPoint x="670" y="1569.7" as="targetPoint" />
          </mxGeometry>
        </mxCell>
        <mxCell id="qL8Xj3PJYmWpMpbPDrzU-87" value="" style="endArrow=classic;html=1;rounded=0;entryX=1;entryY=0.5;entryDx=0;entryDy=0;" parent="1" edge="1">
          <mxGeometry width="50" height="50" relative="1" as="geometry">
            <mxPoint x="740" y="1469.7" as="sourcePoint" />
            <mxPoint x="670" y="1469.7" as="targetPoint" />
          </mxGeometry>
        </mxCell>
        <mxCell id="G1BRfyd90inixwe90rNa-10" style="edgeStyle=orthogonalEdgeStyle;rounded=0;orthogonalLoop=1;jettySize=auto;html=1;entryX=0.5;entryY=0;entryDx=0;entryDy=0;" edge="1" parent="1" source="G1BRfyd90inixwe90rNa-7" target="G1BRfyd90inixwe90rNa-8">
          <mxGeometry relative="1" as="geometry" />
        </mxCell>
        <mxCell id="G1BRfyd90inixwe90rNa-7" value="Поиск рейсов по интервалу" style="rounded=0;whiteSpace=wrap;html=1;" vertex="1" parent="1">
          <mxGeometry x="-110" y="670" width="120" height="60" as="geometry" />
        </mxCell>
        <mxCell id="G1BRfyd90inixwe90rNa-11" style="edgeStyle=orthogonalEdgeStyle;rounded=0;orthogonalLoop=1;jettySize=auto;html=1;entryX=0.5;entryY=0;entryDx=0;entryDy=0;" edge="1" parent="1" source="G1BRfyd90inixwe90rNa-8" target="qL8Xj3PJYmWpMpbPDrzU-25">
          <mxGeometry relative="1" as="geometry" />
        </mxCell>
        <mxCell id="G1BRfyd90inixwe90rNa-8" value="search id ?" style="rounded=0;whiteSpace=wrap;html=1;" vertex="1" parent="1">
          <mxGeometry x="-110" y="780" width="120" height="60" as="geometry" />
        </mxCell>
        <mxCell id="G1BRfyd90inixwe90rNa-9" value="" style="endArrow=classic;html=1;rounded=0;exitX=0.5;exitY=1;exitDx=0;exitDy=0;entryX=1;entryY=0.5;entryDx=0;entryDy=0;" edge="1" parent="1" source="qL8Xj3PJYmWpMpbPDrzU-21" target="G1BRfyd90inixwe90rNa-7">
          <mxGeometry width="50" height="50" relative="1" as="geometry">
            <mxPoint x="410" y="930" as="sourcePoint" />
            <mxPoint x="460" y="880" as="targetPoint" />
          </mxGeometry>
        </mxCell>
      </root>
    </mxGraphModel>
  </diagram>
</mxfile>
